<svg width="633.3049926757812px" height="161.119970703125px" xmlns="http://www.w3.org/2000/svg" viewBox="-66.65249633789062 -5.559985351562503 633.3049926757812 161.119970703125" style="background: rgba(0, 0, 0, 0);" preserveAspectRatio="xMidYMid"><defs><filter id="editing-jagged" x="-100%" y="-100%" width="300%" height="300%"><feTurbulence result="turb" baseFrequency="0.1" numOctaves="1" seed="1"></feTurbulence><feDisplacementMap in="SourceGraphic" in2="turb" scale="10"></feDisplacementMap></filter></defs><g filter="url(#editing-jagged)"><g transform="translate(23.985004425048828, 107.93000602722168)"><path d="M47.97-18.42L47.97-18.42L47.97-18.42Q50.28-16.73 50.28-13.13L50.28-13.13L50.28-13.13Q50.28-9.52 48.73-6.99L48.73-6.99L48.73-6.99Q47.17-4.45 44.14-2.49L44.14-2.49L44.14-2.49Q37.65 1.69 26.30 1.69L26.30 1.69L26.30 1.69Q14.95 1.69 8.77-4.23L8.77-4.23L8.77-4.23Q2.58-10.15 2.58-20.65L2.58-20.65L2.58-20.65Q2.58-35.51 10.32-46.81L10.32-46.81L10.32-46.81Q16.20-55.18 26.70-58.74L26.70-58.74L26.70-58.74Q32.13-60.52 37.47-60.52L37.47-60.52L37.47-60.52Q42.81-60.52 46.10-59.81L46.10-59.81L46.10-59.81Q49.39-59.10 51.89-57.67L51.89-57.67L51.89-57.67Q57.32-54.56 57.32-49.57L57.32-49.57L57.32-49.57Q57.32-45.03 53.04-41.65L53.04-41.65L53.04-41.65Q49.13-38.63 45.92-38.63L45.92-38.63L45.92-38.63Q42.72-38.63 41.38-39.07L41.38-39.07L41.38-39.07Q41.74-42.27 41.74-44.37L41.74-44.37L41.74-44.37Q41.74-46.46 41.65-47.97L41.65-47.97L41.65-47.97Q41.56-49.48 41.12-50.91L41.12-50.91L41.12-50.91Q40.23-54.20 37.51-54.20L37.51-54.20L37.51-54.20Q34.80-54.20 32.08-51.66L32.08-51.66L32.08-51.66Q29.37-49.13 27.06-44.86L27.06-44.86L27.06-44.86Q21.80-35.16 21.80-23.67L21.80-23.67L21.80-23.67Q21.80-18.16 24.92-15.00L24.92-15.00L24.92-15.00Q28.04-11.84 34.71-11.84L34.71-11.84L34.71-11.84Q39.69-11.84 44.41-15.13L44.41-15.13L44.41-15.13Q46.46-16.55 47.97-18.42ZM61.54-2.67L61.54-2.67L61.54-2.67Q59.45-4.98 58.52-8.63L58.52-8.63L58.52-8.63Q57.58-12.28 57.58-18.24L57.58-18.24L57.58-18.24Q57.58-24.21 59.63-29.64L59.63-29.64L59.63-29.64Q61.68-35.07 65.41-38.98L65.41-38.98L65.41-38.98Q73.07-47.17 85.71-47.17L85.71-47.17L85.71-47.17Q90.25-47.17 93.54-45.66L93.54-45.66L108.76-47.17L102.17-12.46L102.17-12.46Q101.91-11.39 101.91-9.43L101.91-9.43L101.91-9.43Q101.91-7.48 103.11-6.23L103.11-6.23L103.11-6.23Q104.31-4.98 106.09-4.81L106.09-4.81L106.09-4.81Q105.20-1.78 101.95 0L101.95 0L101.95 0Q98.70 1.78 95.05 1.78L95.05 1.78L95.05 1.78Q91.40 1.78 88.96 0.40L88.96 0.40L88.96 0.40Q86.51-0.98 85.80-3.29L85.80-3.29L85.80-3.29Q84.37-1.07 81.35 0.36L81.35 0.36L81.35 0.36Q78.32 1.78 74.27 1.78L74.27 1.78L74.27 1.78Q70.22 1.78 66.93 0.71L66.93 0.71L66.93 0.71Q63.63-0.36 61.54-2.67ZM80.32-38.80L80.32-38.80L80.32-38.80Q79.30-37.20 78.41-34.49L78.41-34.49L78.41-34.49Q77.52-31.77 76.05-24.52L76.05-24.52L76.05-24.52Q74.58-17.27 74.58-12.10L74.58-12.10L74.58-12.10Q74.58-6.94 75.38-5.43L75.38-5.43L75.38-5.43Q76.18-3.92 77.61-3.92L77.61-3.92L77.61-3.92Q80.46-3.92 82.55-6.63L82.55-6.63L82.55-6.63Q84.64-9.34 85.44-14.15L85.44-14.15L90.16-40.23L90.16-40.23Q88.29-41.83 86.11-41.83L86.11-41.83L86.11-41.83Q83.93-41.83 82.64-41.12L82.64-41.12L82.64-41.12Q81.35-40.41 80.32-38.80ZM141.42-25.01L141.42-25.01L141.42-25.01Q144.63-30.70 144.63-36.49L144.63-36.49L144.63-36.49Q144.63-40.32 141.87-40.32L141.87-40.32L141.87-40.32Q139.73-40.32 137.50-36.67L137.50-36.67L137.50-36.67Q135.19-33.02 134.48-28.30L134.48-28.30L129.85 0L111.43 1.78L120.51-45.39L135.19-47.17L133.59-38.18L133.59-38.18Q137.95-47.17 147.74-47.17L147.74-47.17L147.74-47.17Q152.90-47.17 155.71-44.50L155.71-44.50L155.71-44.50Q158.51-41.83 158.51-36.36L158.51-36.36L158.51-36.36Q158.51-30.88 154.90-27.41L154.90-27.41L154.90-27.41Q151.30-23.94 145.16-23.94L145.16-23.94L145.16-23.94Q142.49-23.94 141.42-25.01ZM178.18 0L159.13 0L169.99-58.47L169.99-58.47Q178.80-59.45 191.66-59.45L191.66-59.45L191.66-59.45Q204.52-59.45 210.48-55.71L210.48-55.71L210.48-55.71Q216.45-51.98 216.45-44.46L216.45-44.46L216.45-44.46Q216.45-36.93 212.58-32.22L212.58-32.22L212.58-32.22Q208.70-27.50 202.03-25.99L202.03-25.99L202.03-25.99Q203.54-18.60 207.01-12.64L207.01-12.64L207.01-12.64Q210.22-7.03 213.96-5.25L213.96-5.25L213.96-5.25Q212.62-1.51 209.91 0.13L209.91 0.13L209.91 0.13Q207.19 1.78 203.32 1.78L203.32 1.78L203.32 1.78Q199.45 1.78 196.42-0.49L196.42-0.49L196.42-0.49Q193.40-2.76 190.99-6.94L190.99-6.94L190.99-6.94Q185.92-16.02 185.39-30.35L185.39-30.35L186.01-30.35L186.01-30.35Q192.60-30.53 195.89-33.95L195.89-33.95L195.89-33.95Q199.18-37.38 199.18-44.59L199.18-44.59L199.18-44.59Q199.18-53.58 191.62-53.93L191.62-53.93L189.66-53.93L189.66-53.93Q188.86-53.93 188.41-53.84L188.41-53.84L178.18 0ZM256.59-15.04L256.59-15.04L256.59-15.04Q258.81-13.53 258.81-10.19L258.81-10.19L258.81-10.19Q258.81-6.85 257.12-4.72L257.12-4.72L257.12-4.72Q255.43-2.58 252.67-1.16L252.67-1.16L252.67-1.16Q246.97 1.78 240.83 1.78L240.83 1.78L240.83 1.78Q234.69 1.78 231.09 0.44L231.09 0.44L231.09 0.44Q227.48-0.89 225.08-3.38L225.08-3.38L225.08-3.38Q220.36-8.10 220.36-16.73L220.36-16.73L220.36-16.73Q220.36-30.17 227.66-38.36L227.66-38.36L227.66-38.36Q235.49-47.17 249.11-47.17L249.11-47.17L249.11-47.17Q257.57-47.17 261.75-43.61L261.75-43.61L261.75-43.61Q264.86-40.94 264.86-36.58L264.86-36.58L264.86-36.58Q264.86-20.91 237.81-20.91L237.81-20.91L237.81-20.91Q237.45-18.60 237.45-16.64L237.45-16.64L237.45-16.64Q237.45-12.55 239.28-10.99L239.28-10.99L239.28-10.99Q241.10-9.43 244.48-9.43L244.48-9.43L244.48-9.43Q247.87-9.43 251.47-10.99L251.47-10.99L251.47-10.99Q255.07-12.55 256.59-15.04ZM238.43-24.74L238.43-24.74L238.43-24.74Q244.75-24.74 248.40-28.66L248.40-28.66L248.40-28.66Q252.05-32.40 252.05-38.36L252.05-38.36L252.05-38.36Q252.05-40.41 251.29-41.52L251.29-41.52L251.29-41.52Q250.53-42.63 249.02-42.63L249.02-42.63L249.02-42.63Q247.51-42.63 246.22-42.05L246.22-42.05L246.22-42.05Q244.93-41.47 243.59-39.52L243.59-39.52L243.59-39.52Q240.30-35.07 238.43-24.74ZM302.60-41.12L302.60-41.12L302.60-41.12Q303.94-43.79 303.94-46.28L303.94-46.28L303.94-46.28Q303.94-48.77 303.67-50.15L303.67-50.15L303.67-50.15Q303.40-51.53 302.78-52.60L302.78-52.60L302.78-52.60Q301.44-54.91 298.77-54.91L298.77-54.91L298.77-54.91Q295.48-54.91 292.81-52.51L292.81-52.51L292.81-52.51Q289.96-50.02 289.96-46.10L289.96-46.10L289.96-46.10Q289.96-43.61 291.70-41.70L291.70-41.70L291.70-41.70Q293.43-39.78 296.10-38.00L296.10-38.00L296.10-38.00Q298.77-36.22 301.80-34.44L301.80-34.44L301.80-34.44Q304.82-32.66 307.50-30.53L307.50-30.53L307.50-30.53Q313.64-25.63 313.64-19.05L313.64-19.05L313.64-19.05Q313.64-14.60 311.28-10.81L311.28-10.81L311.28-10.81Q308.92-7.03 305.00-4.27L305.00-4.27L305.00-4.27Q296.46 1.78 285.16 1.78L285.16 1.78L285.16 1.78Q275.99 1.78 271.27-1.20L271.27-1.20L271.27-1.20Q266.56-4.18 266.56-8.72L266.56-8.72L266.56-8.72Q266.56-16.82 272.87-18.87L272.87-18.87L272.87-18.87Q274.65-19.49 277.37-19.49L277.37-19.49L277.37-19.49Q280.08-19.49 283.20-18.33L283.20-18.33L283.20-18.33Q281.77-14.68 281.77-11.39L281.77-11.39L281.77-11.39Q281.77-4.27 286.85-4.27L286.85-4.27L286.85-4.27Q290.14-4.27 292.85-6.67L292.85-6.67L292.85-6.67Q295.57-9.08 295.57-11.79L295.57-11.79L295.57-11.79Q295.57-14.51 293.83-16.46L293.83-16.46L293.83-16.46Q292.10-18.42 289.52-19.98L289.52-19.98L289.52-19.98Q286.94-21.54 283.95-23.05L283.95-23.05L283.95-23.05Q280.97-24.56 278.39-26.70L278.39-26.70L278.39-26.70Q272.34-31.59 272.34-39.43L272.34-39.43L272.34-39.43Q272.34-44.50 274.83-48.46L274.83-48.46L274.83-48.46Q277.32-52.42 281.33-55.09L281.33-55.09L281.33-55.09Q289.34-60.52 299.17-60.52L299.17-60.52L299.17-60.52Q309.01-60.52 313.77-57.58L313.77-57.58L313.77-57.58Q318.53-54.65 318.53-49.66L318.53-49.66L318.53-49.66Q318.53-45.30 315.15-42.54L315.15-42.54L315.15-42.54Q312.21-40.23 308.65-40.23L308.65-40.23L308.65-40.23Q305.09-40.23 302.60-41.12ZM324.27-2.67L324.27-2.67L324.27-2.67Q322.18-4.98 321.25-8.63L321.25-8.63L321.25-8.63Q320.31-12.28 320.31-18.24L320.31-18.24L320.31-18.24Q320.31-24.21 322.36-29.64L322.36-29.64L322.36-29.64Q324.40-35.07 328.14-38.98L328.14-38.98L328.14-38.98Q335.80-47.17 348.44-47.17L348.44-47.17L348.44-47.17Q352.97-47.17 356.27-45.66L356.27-45.66L371.49-47.17L364.90-12.46L364.90-12.46Q364.63-11.39 364.63-9.43L364.63-9.43L364.63-9.43Q364.63-7.48 365.83-6.23L365.83-6.23L365.83-6.23Q367.04-4.98 368.82-4.81L368.82-4.81L368.82-4.81Q367.93-1.78 364.68 0L364.68 0L364.68 0Q361.43 1.78 357.78 1.78L357.78 1.78L357.78 1.78Q354.13 1.78 351.68 0.40L351.68 0.40L351.68 0.40Q349.24-0.98 348.52-3.29L348.52-3.29L348.52-3.29Q347.10-1.07 344.07 0.36L344.07 0.36L344.07 0.36Q341.05 1.78 337.00 1.78L337.00 1.78L337.00 1.78Q332.95 1.78 329.66 0.71L329.66 0.71L329.66 0.71Q326.36-0.36 324.27-2.67ZM343.05-38.80L343.05-38.80L343.05-38.80Q342.03-37.20 341.14-34.49L341.14-34.49L341.14-34.49Q340.25-31.77 338.78-24.52L338.78-24.52L338.78-24.52Q337.31-17.27 337.31-12.10L337.31-12.10L337.31-12.10Q337.31-6.94 338.11-5.43L338.11-5.43L338.11-5.43Q338.91-3.92 340.34-3.92L340.34-3.92L340.34-3.92Q343.18-3.92 345.28-6.63L345.28-6.63L345.28-6.63Q347.37-9.34 348.17-14.15L348.17-14.15L352.88-40.23L352.88-40.23Q351.02-41.83 348.84-41.83L348.84-41.83L348.84-41.83Q346.65-41.83 345.36-41.12L345.36-41.12L345.36-41.12Q344.07-40.41 343.05-38.80ZM397.56-4.89L397.56-4.89L397.56-4.89Q394.80 1.78 385.99 1.78L385.99 1.78L385.99 1.78Q381.54 1.78 378.69-1.33L378.69-1.33L378.69-1.33Q376.38-3.92 376.38-6.85L376.38-6.85L376.38-6.85Q376.38-13.53 379.50-28.12L379.50-28.12L385.99-62.30L404.06-64.08L395.43-19.05L395.43-19.05Q393.91-12.46 393.91-10.15L393.91-10.15L393.91-10.15Q393.91-5.07 397.56-4.89ZM441.17-15.04L441.17-15.04L441.17-15.04Q443.40-13.53 443.40-10.19L443.40-10.19L443.40-10.19Q443.40-6.85 441.71-4.72L441.71-4.72L441.71-4.72Q440.02-2.58 437.26-1.16L437.26-1.16L437.26-1.16Q431.56 1.78 425.42 1.78L425.42 1.78L425.42 1.78Q419.28 1.78 415.67 0.44L415.67 0.44L415.67 0.44Q412.07-0.89 409.67-3.38L409.67-3.38L409.67-3.38Q404.95-8.10 404.95-16.73L404.95-16.73L404.95-16.73Q404.95-30.17 412.25-38.36L412.25-38.36L412.25-38.36Q420.08-47.17 433.70-47.17L433.70-47.17L433.70-47.17Q442.15-47.17 446.34-43.61L446.34-43.61L446.34-43.61Q449.45-40.94 449.45-36.58L449.45-36.58L449.45-36.58Q449.45-20.91 422.39-20.91L422.39-20.91L422.39-20.91Q422.04-18.60 422.04-16.64L422.04-16.64L422.04-16.64Q422.04-12.55 423.86-10.99L423.86-10.99L423.86-10.99Q425.69-9.43 429.07-9.43L429.07-9.43L429.07-9.43Q432.45-9.43 436.06-10.99L436.06-10.99L436.06-10.99Q439.66-12.55 441.17-15.04ZM423.02-24.74L423.02-24.74L423.02-24.74Q429.34-24.74 432.99-28.66L432.99-28.66L432.99-28.66Q436.63-32.40 436.63-38.36L436.63-38.36L436.63-38.36Q436.63-40.41 435.88-41.52L435.88-41.52L435.88-41.52Q435.12-42.63 433.61-42.63L433.61-42.63L433.61-42.63Q432.10-42.63 430.80-42.05L430.80-42.05L430.80-42.05Q429.51-41.47 428.18-39.52L428.18-39.52L428.18-39.52Q424.89-35.07 423.02-24.74Z" fill="#444"></path></g></g><style>text {
  font-size: 64px;
  font-family: Arial Black;
  dominant-baseline: central;
  text-anchor: middle;
}</style></svg>